<mxfile host="65bd71144e">
    <diagram id="pHYB0hM_5UGr_n_MvEqr" name="Page-1">
        <mxGraphModel dx="779" dy="543" grid="1" gridSize="10" guides="1" tooltips="1" connect="1" arrows="1" fold="1" page="1" pageScale="1" pageWidth="850" pageHeight="1100" math="0" shadow="0">
            <root>
                <mxCell id="0"/>
                <mxCell id="1" parent="0"/>
                <mxCell id="19" value="als voorwerp in voorraad" style="whiteSpace=wrap;html=1;verticalAlign=top;" vertex="1" parent="1">
                    <mxGeometry x="230" y="540" width="210" height="60" as="geometry"/>
                </mxCell>
                <mxCell id="10" value="als voorwerp en wisselgeld &amp;gt;= 0" style="whiteSpace=wrap;html=1;align=left;verticalAlign=top;" vertex="1" parent="1">
                    <mxGeometry x="230" y="160" width="290" height="160" as="geometry"/>
                </mxCell>
                <mxCell id="2" value="return voorwerp en wisselgeld" style="whiteSpace=wrap;html=1;" vertex="1" parent="1">
                    <mxGeometry x="230" y="690" width="110" height="60" as="geometry"/>
                </mxCell>
                <mxCell id="3" value="betalen" style="whiteSpace=wrap;html=1;" vertex="1" parent="1">
                    <mxGeometry x="230" y="100" width="290" height="60" as="geometry"/>
                </mxCell>
                <mxCell id="4" value="Vending machine(voorwerp, betaald)" style="text;html=1;align=center;verticalAlign=middle;resizable=0;points=[];autosize=1;strokeColor=none;fillColor=none;" vertex="1" parent="1">
                    <mxGeometry x="205" y="450" width="220" height="30" as="geometry"/>
                </mxCell>
                <mxCell id="6" value="selecteer voorwerp" style="whiteSpace=wrap;html=1;" vertex="1" parent="1">
                    <mxGeometry x="310" y="200" width="210" height="60" as="geometry"/>
                </mxCell>
                <mxCell id="7" value="Vending machine(voorwerp,betaald)" style="whiteSpace=wrap;html=1;" vertex="1" parent="1">
                    <mxGeometry x="310" y="260" width="210" height="60" as="geometry"/>
                </mxCell>
                <mxCell id="8" value="Pak voorwerp en eventueel wisselgeld uit bak" style="whiteSpace=wrap;html=1;" vertex="1" parent="1">
                    <mxGeometry x="230" y="320" width="290" height="60" as="geometry"/>
                </mxCell>
                <mxCell id="9" value="Controlleer voorraad" style="whiteSpace=wrap;html=1;verticalAlign=middle;" vertex="1" parent="1">
                    <mxGeometry x="230" y="480" width="210" height="60" as="geometry"/>
                </mxCell>
                <mxCell id="11" value="als voorwerp in voorraad &amp;amp;&lt;br&gt;betaald &amp;gt; prijs" style="whiteSpace=wrap;html=1;verticalAlign=top;" vertex="1" parent="1">
                    <mxGeometry x="230" y="540" width="210" height="90" as="geometry"/>
                </mxCell>
                <mxCell id="12" value="return false" style="whiteSpace=wrap;html=1;" vertex="1" parent="1">
                    <mxGeometry x="340" y="630" width="100" height="120" as="geometry"/>
                </mxCell>
                <mxCell id="13" value="" style="edgeStyle=none;orthogonalLoop=1;jettySize=auto;html=1;endArrow=none;endFill=0;entryX=1;entryY=0;entryDx=0;entryDy=0;exitX=1;exitY=1;exitDx=0;exitDy=0;" edge="1" parent="1" source="9" target="28">
                    <mxGeometry width="100" relative="1" as="geometry">
                        <mxPoint x="530" y="440" as="sourcePoint"/>
                        <mxPoint x="630" y="440" as="targetPoint"/>
                        <Array as="points"/>
                    </mxGeometry>
                </mxCell>
                <mxCell id="14" value="" style="edgeStyle=none;orthogonalLoop=1;jettySize=auto;html=1;endArrow=none;endFill=0;entryX=0;entryY=0;entryDx=0;entryDy=0;exitX=1;exitY=0;exitDx=0;exitDy=0;" edge="1" parent="1" source="28" target="11">
                    <mxGeometry width="100" relative="1" as="geometry">
                        <mxPoint x="340" y="600" as="sourcePoint"/>
                        <mxPoint x="80" y="550" as="targetPoint"/>
                        <Array as="points"/>
                    </mxGeometry>
                </mxCell>
                <mxCell id="16" value="true" style="text;html=1;align=center;verticalAlign=middle;resizable=0;points=[];autosize=1;strokeColor=none;fillColor=none;" vertex="1" parent="1">
                    <mxGeometry x="230" y="600" width="40" height="30" as="geometry"/>
                </mxCell>
                <mxCell id="17" value="false" style="text;html=1;align=center;verticalAlign=middle;resizable=0;points=[];autosize=1;strokeColor=none;fillColor=none;" vertex="1" parent="1">
                    <mxGeometry x="390" y="600" width="50" height="30" as="geometry"/>
                </mxCell>
                <mxCell id="18" value="Controlleer voorraad" style="whiteSpace=wrap;html=1;verticalAlign=middle;" vertex="1" parent="1">
                    <mxGeometry x="230" y="480" width="210" height="60" as="geometry"/>
                </mxCell>
                <mxCell id="28" value="wisselgeld = betaald - prijs&amp;nbsp;" style="whiteSpace=wrap;html=1;" vertex="1" parent="1">
                    <mxGeometry x="230" y="630" width="110" height="60" as="geometry"/>
                </mxCell>
            </root>
        </mxGraphModel>
    </diagram>
</mxfile>